<!-- The app logo as the browser tab icon: the same brand-gradient tile and
     Lucide sparkles glyph the TopBar draws, with a heavier stroke so the star
     still reads at 16px. favicon.ico is rasterised from this file. -->
<svg xmlns="http://www.w3.org/2000/svg" viewBox="0 0 32 32" width="32" height="32" role="img" aria-label="Magic Landing Pages">
  <linearGradient id="brand" x1="0" y1="0" x2="32" y2="32" gradientUnits="userSpaceOnUse">
    <stop offset="0" stop-color="#4f46e5"/>
    <stop offset="1" stop-color="#7c3aed"/>
  </linearGradient>
  <rect width="32" height="32" rx="9" fill="url(#brand)"/>
  <g transform="translate(5.5 5.5) scale(0.875)" fill="none" stroke="#ffffff" stroke-width="2.5" stroke-linecap="round" stroke-linejoin="round">
    <path d="M11.017 2.814a1 1 0 0 1 1.966 0l1.051 5.558a2 2 0 0 0 1.594 1.594l5.558 1.051a1 1 0 0 1 0 1.966l-5.558 1.051a2 2 0 0 0-1.594 1.594l-1.051 5.558a1 1 0 0 1-1.966 0l-1.051-5.558a2 2 0 0 0-1.594-1.594l-5.558-1.051a1 1 0 0 1 0-1.966l5.558-1.051a2 2 0 0 0 1.594-1.594z"/>
    <path d="M20 2v4"/>
    <path d="M22 4h-4"/>
    <circle cx="4" cy="20" r="2"/>
  </g>
</svg>
